<?xml version="1.0" encoding="UTF-8" standalone="no"?>
<!-- Created with Inkscape (http://www.inkscape.org/) -->

<svg
   xmlns:dc="http://purl.org/dc/elements/1.1/"
   xmlns:cc="http://creativecommons.org/ns#"
   xmlns:rdf="http://www.w3.org/1999/02/22-rdf-syntax-ns#"
   xmlns:svg="http://www.w3.org/2000/svg"
   xmlns="http://www.w3.org/2000/svg"
   xmlns:sodipodi="http://sodipodi.sourceforge.net/DTD/sodipodi-0.dtd"
   xmlns:inkscape="http://www.inkscape.org/namespaces/inkscape"
   version="1.1"
   id="svg10"
   width="512"
   height="512"
   viewBox="0 0 512 512"
   sodipodi:docname="fan_back.svg"
   inkscape:version="0.92.0 r15299">
  <metadata
     id="metadata16">
    <rdf:RDF>
      <cc:Work
         rdf:about="">
        <dc:format>image/svg+xml</dc:format>
        <dc:type
           rdf:resource="http://purl.org/dc/dcmitype/StillImage" />
        <dc:title></dc:title>
      </cc:Work>
    </rdf:RDF>
  </metadata>
  <defs
     id="defs14" />
  <sodipodi:namedview
     pagecolor="#ffffff"
     bordercolor="#666666"
     borderopacity="1"
     objecttolerance="10"
     gridtolerance="10"
     guidetolerance="10"
     inkscape:pageopacity="0"
     inkscape:pageshadow="2"
     inkscape:window-width="1920"
     inkscape:window-height="998"
     id="namedview12"
     showgrid="false"
     inkscape:zoom="1.5527344"
     inkscape:cx="256"
     inkscape:cy="256"
     inkscape:window-x="-9"
     inkscape:window-y="-9"
     inkscape:window-maximized="1"
     inkscape:current-layer="svg10" />
  <path
     style="fill:#000000"
     d="M 34.109139,510.68136 C 18.152719,506.37362 5.7243088,493.79777 1.5374188,477.72323 0.18314885,472.52383 0.00450885,446.71546 0.00450885,256.25819 c 0,-236.102764 -0.37779,-220.918435 5.78290995,-232.425132 C 11.547839,13.073995 24.053059,3.8377375 36.285039,1.3077525 39.951119,0.5494835 106.23589,0.3070575 259.00451,0.4931915 l 217.5,0.265003 5.72477,2.312407 c 12.61963,5.097457 23.08933,15.9426685 27.44064,28.4248645 1.7579,5.042731 1.83459,14.438452 1.83459,224.762724 0,210.32428 -0.0767,219.72 -1.83459,224.76273 -4.35131,12.48219 -14.82101,23.32741 -27.44064,28.42486 l -5.72477,2.31241 -218.5,0.18987 c -188.608971,0.1639 -219.238091,-0.009 -223.895371,-1.2667 z m 448.039151,-11.1731 c 7.82628,-3.85297 13.97112,-10.12945 17.69581,-18.07492 l 2.66041,-5.67515 v -219.5 V 36.758194 L 499.8441,31.083048 C 496.11933,23.137412 489.97458,16.861084 482.14812,13.008127 L 475.54656,9.7581945 H 256.02554 36.504509 l -5.67514,2.6604065 c -7.94564,3.724772 -14.22197,9.869519 -18.07492,17.695988 l -3.2499403,6.60155 V 256.23716 475.75819 l 2.6351703,5.62001 c 4.784,10.20283 13.51862,17.73491 23.79418,20.51833 3.57751,0.96907 51.835,1.19719 222.091861,1.04987 l 217.5212,-0.18821 z M 236.68762,483.27057 C 190.3634,478.77507 148.73361,461.97232 113.50451,433.551 68.245889,397.03828 39.091749,345.88076 30.418689,287.75819 c -2.44996,-16.41842 -2.44996,-46.58158 0,-63 6.1872,-41.46358 23.01651,-80.01525 48.89237,-112 9.23909,-11.42029 28.494041,-29.890597 40.343441,-38.699437 31.17314,-23.174098 66.01478,-37.591386 104.85001,-43.386386 16.20021,-2.417398 46.47916,-2.43259 62.95001,-0.03159 73.26307,10.679778 136.12241,55.246546 170.57208,120.934243 17.14725,32.69591 25.35438,66.5815 25.35438,104.68317 0,37.98583 -8.26788,72.12648 -25.35124,104.68315 -34.38268,65.52492 -97.44369,110.33245 -169.93252,120.74427 -13.74222,1.97385 -39.28694,2.76138 -51.4096,1.58495 z m 50.33437,-10.51034 c 72.3344,-10.83228 133.85015,-55.80089 165.52728,-121.00204 15.39748,-31.69268 21.96115,-60.91029 21.79085,-97 -0.10956,-23.2153 -2.61111,-40.46157 -8.84688,-60.9922 C 447.49617,134.5124 406.69128,86.525203 351.50451,59.71343 c -31.91621,-15.506074 -60.2197,-21.892898 -96.5,-21.775704 -23.74079,0.07669 -40.67442,2.508757 -61.4922,8.831733 C 134.30207,64.753366 86.286869,105.58022 59.453699,160.75819 c -15.07312,30.99537 -21.86986,60.675 -21.86986,95.5 0,10.175 0.58232,22.55 1.29404,27.5 7.88517,54.84094 33.49592,102.58281 73.626631,137.24988 35.43044,30.60672 77.65415,48.67729 124.5,53.28253 11.68906,1.1491 37.37229,0.36328 50.01748,-1.53037 z m -245.517481,6.83276 c -9.54121,-5.04132 -13.01503,-15.19851 -8.55654,-25.01866 2.86935,-6.31994 8.76635,-9.81614 16.55678,-9.81614 7.05753,0 11.50853,2.38012 15.58994,8.33655 3.60904,5.26706 3.42667,14.27295 -0.40632,20.06498 -4.77649,7.21777 -15.87202,10.29666 -23.18386,6.43327 z m 14.70212,-10.38307 c 2.68099,-2.68099 2.98204,-3.5421 2.49855,-7.14675 -0.69716,-5.1977 -3.30795,-7.80849 -8.50565,-8.50565 -3.60465,-0.48348 -4.46576,-0.18244 -7.14675,2.49855 -4.1636,4.1636 -4.21102,9.19322 -0.12519,13.27904 4.08583,4.08583 9.11544,4.03841 13.27904,-0.12519 z m 397.966151,9.90254 c -16.38584,-8.11078 -11.53109,-32.86386 6.79078,-34.62436 16.55938,-1.59114 26.31621,18.42788 15.17036,31.1265 -4.91509,5.59983 -14.59868,7.14218 -21.96114,3.49786 z m 14.90865,-9.77735 c 4.08583,-4.08582 4.03841,-9.11544 -0.12519,-13.27904 -2.68099,-2.68099 -3.5421,-2.98203 -7.14675,-2.49855 -2.25416,0.30235 -4.9664,1.41765 -6.0272,2.47845 -1.0608,1.0608 -2.1761,3.77304 -2.47845,6.0272 -0.48348,3.60465 -0.18244,4.46576 2.49855,7.14675 4.1636,4.1636 9.19322,4.21102 13.27904,0.12519 z M 43.149669,67.242692 c -7.57721,-3.210046 -12.08251,-9.81911 -12.12319,-17.784158 -0.069,-13.515644 13.91675,-22.043367 26.66189,-16.256882 6.31995,2.869348 9.81614,8.766346 9.81614,16.556782 0,7.020102 -2.37923,11.507914 -8.22428,15.51301 -3.79544,2.600675 -12.21584,3.629697 -16.13056,1.971248 z m 13.07707,-10.762276 c 1.06079,-1.060798 2.17609,-3.773039 2.47844,-6.027202 0.48349,-3.604654 0.18244,-4.465761 -2.49855,-7.146749 -4.1636,-4.163601 -9.19321,-4.21102 -13.27904,-0.125194 -4.08583,4.085826 -4.03841,9.115439 0.12519,13.279041 2.68099,2.680987 3.5421,2.982036 7.14675,2.49855 2.25417,-0.302347 4.96641,-1.417647 6.02721,-2.478446 z m 397.946041,9.632051 c -6.4422,-3.188807 -9.66827,-8.645838 -9.66827,-16.354273 0,-7.790179 3.49628,-13.687232 9.81614,-16.556542 13.43698,-6.100588 27.65076,3.383508 26.46684,17.659921 -1.11771,13.478153 -14.59455,21.200719 -26.61471,15.250894 z m 14.90865,-9.77735 c 2.16411,-2.164102 2.92308,-3.871795 2.92308,-6.576923 0,-5.080774 -4.41923,-9.5 -9.5,-9.5 -4.63779,0 -9.50727,4.45253 -9.48526,8.673077 0.0475,9.101847 9.84707,13.618963 16.06218,7.403846 z"
     id="path20"
     inkscape:connector-curvature="0"
     sodipodi:nodetypes="cssssscssscscscsscccsscccsccccssscscsssssssssssccssssssssssssscsssccsscscssssscscscscscsssscssssscssssscsscc" />
</svg>
